Coordinates
version=1
nRows=15
nColumns=42
inDegrees=yes

Units are S.I. units (second, meters, Newtons, ...)
If the header above contains a line with 'inDegrees', this indicates whether rotational values are in degrees (yes) or radians (no).

endheader
time	pelvis_tilt	pelvis_list	pelvis_rotation	pelvis_tx	pelvis_ty	pelvis_tz	hip_flexion_r	hip_adduction_r	hip_rotation_r	knee_angle_r	knee_adduction_r	knee_angle_r_beta	ankle_angle_r	subtalar_angle_r	mtp_angle_r	hip_flexion_l	hip_adduction_l	hip_rotation_l	knee_angle_l	knee_adduction_l	knee_angle_l_beta	ankle_angle_l	subtalar_angle_l	mtp_angle_l	lumbar_extension	lumbar_bending	lumbar_rotation	arm_flex_r	arm_add_r	arm_rot_r	elbow_flex_r	pro_sup_r	wrist_flex_r	wrist_dev_r	arm_flex_l	arm_add_l	arm_rot_l	elbow_flex_l	pro_sup_l	wrist_flex_l	wrist_dev_l
      1.46000000	      1.74975622	     -5.48755636	      4.11723698	     -0.64410939	      0.95644125	      0.30806683	     14.54620919	      2.30736550	    -11.98739766	      7.88872166	      4.43589278	      0.13768417	     -1.32136845	      9.03165718	     -7.56011119	    -17.82766978	     -6.48152257	     -9.82032402	     17.00135032	     -1.09094699	      0.29672954	     12.11793778	     21.92366696	     -7.56011119	     -7.63940193	     10.79498707	     -7.85093324	    -10.71379225	    -10.40302135	     -1.41566670	     22.43301434	     90.00000001	      0.00000000	      0.00000000	      5.46689574	    -18.66308660	     19.31871121	     45.40509062	     90.00000001	      0.00000000	      0.00000000
      1.47000000	      1.74260917	     -5.52215520	      3.99137392	     -0.63267250	      0.95860216	      0.30898577	     13.90386198	      2.37658833	    -11.49434763	      8.07103662	      4.63673531	      0.14086616	     -0.94794266	      9.15480735	     -7.55921637	    -17.18145971	     -6.82762533	     -9.65645363	     19.23342528	     -0.99999465	      0.33568660	      9.78570031	     21.19338991	     -7.55921637	     -7.62856278	     10.93263544	     -7.53802292	    -10.55519599	    -10.47286332	     -1.43150761	     22.39774146	     90.00000001	      0.00000000	      0.00000000	      4.76692384	    -18.41958930	     19.41263866	     45.22890409	     90.00000001	      0.00000000	      0.00000000
      1.48000000	      1.63279177	     -5.62075647	      3.84387907	     -0.62123613	      0.96067691	      0.30994972	     13.27751908	      2.55202598	    -11.01545352	      8.07096293	      4.80282187	      0.14086488	     -0.57125625	      9.26051073	     -7.55819196	    -16.16328694	     -7.23887367	     -9.54841795	     21.85769761	     -0.99601624	      0.38148879	      7.18275035	     20.19512176	     -7.55819196	     -7.49279443	     11.12289569	     -7.19185267	    -10.38030822	    -10.56831090	     -1.49704140	     22.30516935	     90.00000001	      0.00000000	      0.00000000	      4.03490547	    -18.16060521	     19.42620974	     45.01781338	     90.00000001	      0.00000000	      0.00000000
      1.49000000	      1.23950630	     -5.88989783	      3.64113355	     -0.61007018	      0.96243024	      0.31107992	     12.84982675	      2.99700895	    -10.18512689	      7.74959728	      4.91218956	      0.13525599	     -0.52790887	      8.54545999	     -7.55503187	    -14.54491276	     -7.89880314	     -9.43470797	     24.94389915	     -0.86307456	      0.43535317	      4.60651477	     18.84535458	     -7.55503187	     -7.04951582	     11.48054874	     -6.83014147	    -10.10765402	    -10.61067459	     -1.97052683	     22.11747134	     90.00000001	      0.00000000	      0.00000000	      3.24535366	    -17.76919573	     19.25174701	     44.71929169	     90.00000001	      0.00000000	      0.00000000
      1.50000000	      1.27463435	     -5.83494113	      3.46008163	     -0.59893002	      0.96456024	      0.31208073	     11.96065212	      3.09181405	     -9.81656956	      7.51793682	      4.98937179	      0.13121275	     -0.06153159	      8.79113548	     -7.55389741	    -13.35212799	     -8.14905466	     -9.19292618	     27.87672562	     -0.87753298	      0.48654065	      1.58354895	     17.68236049	     -7.55389741	     -7.12577262	     11.47658262	     -6.40740306	     -9.91316863	    -10.69851043	     -2.04538674	     22.22247982	     90.00000001	      0.00000000	      0.00000000	      2.55678018	    -17.53061082	     19.28093814	     44.53361589	     90.00000001	      0.00000000	      0.00000000
      1.51000000	      1.03016028	     -5.92415494	      3.23612955	     -0.58815227	      0.96618054	      0.31333553	     11.38562426	      3.40579396	     -9.38727570	      7.21471133	      4.95708814	      0.12592047	      0.15928795	      8.77676459	     -7.55184900	    -11.65938039	     -8.61651977	     -8.62271539	     31.07866096	     -0.59695471	      0.54242496	     -1.22367370	     15.48757074	     -7.55184900	     -6.91516181	     11.59352364	     -5.96794090	     -9.66698018	    -10.77663907	     -2.19268582	     22.29803137	     90.00000001	      0.00000000	      0.00000000	      1.85390303	    -17.25448004	     19.18606639	     44.29042962	     90.00000001	      0.00000000	      0.00000000
      1.52000000	      1.14431833	     -5.80741868	      3.09610680	     -0.57737843	      0.96797689	      0.31422560	     10.35609445	      3.43423131	     -9.20530556	      6.84720936	      5.03105129	      0.11950635	      0.68388300	      9.11879593	     -7.55082987	    -10.26568398	     -8.77047117	     -8.35013143	     34.15957493	     -0.70027091	      0.59619705	     -3.83089652	     13.92944576	     -7.55082987	     -7.11711711	     11.51468420	     -5.57264568	     -9.43220170	    -10.89114734	     -2.23151020	     22.58043017	     90.00000001	      0.00000000	      0.00000000	      1.21294088	    -17.04058181	     19.15302578	     44.10030252	     90.00000001	      0.00000000	      0.00000000
      1.53000000	      0.93545747	     -5.85205747	      2.90145089	     -0.56708491	      0.96921308	      0.31550135	      9.77617952	      3.69212603	     -9.02595053	      6.55875541	      4.98772702	      0.11447188	      0.90694787	      9.28001689	     -7.54847986	     -8.42381018	     -9.16007825	     -7.39719206	     37.33787651	     -0.23160603	      0.65166888	     -5.96562964	     10.72288796	     -7.54847986	     -6.99385658	     11.54795682	     -5.14775627	     -9.15420392	    -11.00432167	     -2.18373023	     22.82458825	     90.00000001	      0.00000000	      0.00000000	      0.58141284	    -16.80286143	     18.95351486	     43.83839032	     90.00000001	      0.00000000	      0.00000000
      1.54000000	      0.96268858	     -5.78038495	      2.74149395	     -0.55688356	      0.97047665	      0.31654209	      8.92886723	      3.79376138	     -8.97182935	      6.26865803	      4.96984573	      0.10940872	      1.33079663	      9.75128085	     -7.54643049	     -6.77868478	     -9.35142098	     -6.90341870	     40.36027526	     -0.14962639	      0.70441969	     -7.54300353	      8.20226374	     -7.54643049	     -7.14862873	     11.46803994	     -4.72943856	     -8.86223731	    -11.15389507	     -2.03613716	     23.20773894	     90.00000001	      0.00000000	      0.00000000	      0.00672949	    -16.59728285	     18.81845638	     43.61872905	     90.00000001	      0.00000000	      0.00000000
      1.55000000	      1.01726305	     -5.70166691	      2.58893069	     -0.54686256	      0.97155461	      0.31761054	      8.08752090	      3.87482236	     -8.99282527	      6.03327617	      4.95144066	      0.10530053	      1.80435785	     10.36289765	     -7.54467373	     -5.10850922	     -9.52538601	     -6.63174861	     43.27187859	     -0.21428944	      0.75523675	     -8.49338783	      5.85798425	     -7.54467373	     -7.34954457	     11.35760197	     -4.31190206	     -8.55434607	    -11.31902748	     -1.80198056	     23.64987937	     90.00000001	      0.00000000	      0.00000000	     -0.52622334	    -16.41331457	     18.67615136	     43.37934825	     90.00000001	      0.00000000	      0.00000000
      1.56000000	      1.25206785	     -5.52335509	      2.46448964	     -0.53684684	      0.97267307	      0.31850807	      7.03568204	      3.79697374	     -9.00168713	      5.78918529	      5.01973491	      0.10104034	      2.40051715	     10.90873704	     -7.54376211	     -3.63985908	     -9.53061334	     -6.83170984	     45.92081521	     -0.69321124	      0.80146942	     -8.62271982	      4.20667112	     -7.54376211	     -7.74290367	     11.13615250	     -3.91961481	     -8.20514163	    -11.47409725	     -1.66226387	     24.11030496	     90.00000001	      0.00000000	      0.00000000	     -1.01198263	    -16.26358220	     18.59492105	     43.11495574	     90.00000001	      0.00000000	      0.00000000
      1.57000000	      1.40938823	     -5.38685079	      2.31044555	     -0.52711026	      0.97362891	      0.31958779	      6.15303100	      3.78308827	     -8.94386807	      5.66833337	      5.03917746	      0.09893108	      2.95120632	     11.44570735	     -7.54288667	     -2.06898900	     -9.59470580	     -7.07601601	     48.39369444	     -1.14446388	      0.84462931	     -8.34859299	      2.42704285	     -7.54288667	     -8.07421774	     10.92272257	     -3.51520031	     -7.81070002	    -11.62822289	     -1.44198094	     24.59718085	     90.00000001	      0.00000000	      0.00000000	     -1.46258963	    -16.11789594	     18.49448176	     42.77144856	     90.00000001	      0.00000000	      0.00000000
      1.58000000	      1.79789816	     -5.06776189	      2.09851284	     -0.51766258	      0.97489525	      0.32084769	      5.14190706	      3.55431684	     -8.88550296	      5.76924205	      5.10418536	      0.10069227	      3.30807686	     11.69706682	     -7.54241459	     -0.85638162	     -9.52202655	     -7.29484557	     50.43886140	     -1.39183264	      0.88032420	     -7.80623774	      1.68709662	     -7.54241459	     -8.72936824	     10.46170616	     -3.03166006	     -7.29790934	    -11.70884500	     -1.33866261	     25.00321160	     90.00000001	      0.00000000	      0.00000000	     -1.80509674	    -16.04758993	     18.44097386	     42.46204038	     90.00000001	      0.00000000	      0.00000000
      1.59000000	      1.56355821	     -5.04646469	      1.92175129	     -0.50830145	      0.97528242	      0.32181916	      4.74844154	      3.67873885	     -8.52510115	      5.67071482	      5.00107204	      0.09897264	      4.06133246	     12.24252328	     -7.54109322	      1.22628428	     -9.66473693	     -7.78795222	     52.58205805	     -2.01889010	      0.91773004	     -7.00312509	     -0.54173536	     -7.54109322	     -8.60932662	     10.35157368	     -2.68022178	     -6.94512095	    -12.00242067	     -0.73126876	     25.65975617	     90.00000001	      0.00000000	      0.00000000	     -2.23974298	    -15.78520757	     18.26651720	     41.83470284	     90.00000001	      0.00000000	      0.00000000
      1.60000000	      1.96306429	     -4.69745068	      1.77712247	     -0.49897345	      0.97655531	      0.32305329	      3.77291469	      3.42719964	     -8.47117882	      5.83805612	      5.00148342	      0.10189330	      4.41108325	     12.31918537	     -7.54067283	      2.40348636	     -9.55278959	     -8.08652142	     54.06767405	     -2.27402273	      0.94365893	     -6.12452267	     -0.92192602	     -7.54067283	     -9.23910544	      9.81645923	     -2.33044339	     -6.36242863	    -12.05009223	     -0.63768066	     26.05957512	     90.00000001	      0.00000000	      0.00000000	     -2.58685554	    -15.75703317	     18.25544526	     41.46384031	     90.00000001	      0.00000000	      0.00000000
